# xmcd CD database file
#
# Track frame offsets:
#	150
#	7632
#	24549
#	47692
#	58249
#	83921
#	98864
#	109334
#	119365
#	150630
#	162176
#
# Disc length: 2681 seconds
#
# Revision: 0
# Processed by: cddbd v1.4PL0 Copyright (c) Steve Scherf et al.
# Submitted via: CDex 1.50beta9
#
DISCID=800a770b
DTITLE=Phineas Newborn, jr.  - Solo Piano
DYEAR=1975
DGENRE=Jazz
TTITLE0=Together again
TTITLE1=a) Serenade in a blue - b) Where is the love
TTITLE2=a) Lorraine's walk - b) Willow weep for me
TTITLE3=Nica's dream
TTITLE4=a) Goodbye - b) Flamingo
TTITLE5=a) Live and love - b) one for Horace
TTITLE6=Bouncing with Bud
TTITLE7=Memphis blues
TTITLE8=The midnight sun will never set
TTITLE9=Out of this world
TTITLE10=a) Giant steps - b) Everything I have is yours - c) Where is the love (reprise)
EXTD=YEAR: 1975
EXTT0=
EXTT1=
EXTT2=
EXTT3=
EXTT4=
EXTT5=
EXTT6=
EXTT7=
EXTT8=
EXTT9=
EXTT10=
PLAYORDER=
